<svg width="116px" height="116px" viewBox="0 0 116 116" version="1.1" xmlnsXlink="http://www.w3.org/1999/xlink" xmlns="http://www.w3.org/2000/svg" className="text-green-500">
    <g id="Group" transform="translate(22 0)" clip-path="url(#clip_1)">
        <path d="M8.05339 98.0508C8.05339 98.0508 13.2165 101.046 13.2165 101.046C13.2165 101.046 13.2165 72.61 13.2165 72.61C13.2165 72.61 8.05339 69.6257 8.05339 69.6257C8.05339 69.6257 8.05339 98.0508 8.05339 98.0508Z" id="Path" fill="currentColor" fill-rule="evenodd" stroke="none"></path>
        <path d="M6.45419 68.2861C6.45419 68.2861 7.07298 67.9273 7.07298 67.9273C7.07298 67.9273 11.6029 65.2939 11.6029 65.2939C11.6029 65.2939 11.6029 61.9337 11.6029 61.9337C11.6029 61.9337 11.6029 45.0897 11.6029 45.0897C11.6029 45.0897 11.6029 36.8727 11.6029 36.8727C11.6029 36.8727 6.45419 39.8531 6.45419 39.8531C6.45419 39.8531 6.45419 68.2861 6.45419 68.2861Z" id="Path" fill="currentColor" fill-rule="evenodd" stroke="none"></path>
        <path d="M12.6107 35.1965C12.6355 35.2135 12.6564 35.2292 12.6786 35.2489C12.7034 35.2698 12.723 35.2921 12.7452 35.3157C12.7635 35.3392 12.7804 35.3589 12.7961 35.3824C12.8026 35.3942 12.8144 35.4008 12.8209 35.4099C12.8274 35.423 12.8274 35.4361 12.8327 35.4453C12.847 35.4728 12.8575 35.499 12.8666 35.5278C12.8757 35.5566 12.8849 35.5854 12.8901 35.6155C12.8966 35.643 12.9006 35.6692 12.9019 35.6967C12.9032 35.7098 12.9097 35.7229 12.9097 35.7347L12.9097 44.7113L14.1943 45.4642C14.1943 45.4655 14.1956 45.4655 14.1956 45.4655L23.5792 50.8777L26.4813 49.2028C26.5034 49.1897 26.5282 49.1897 26.5517 49.1792C26.5948 49.1596 26.6379 49.1439 26.6862 49.1347C26.7254 49.1269 26.7632 49.1256 26.8024 49.1256C26.8455 49.1256 26.8872 49.1269 26.9316 49.136C26.9747 49.1439 27.0126 49.1596 27.0544 49.1766C27.0818 49.1871 27.1092 49.1897 27.1353 49.2041L33.6025 52.9414C33.6143 52.9493 33.6208 52.9597 33.6313 52.9676C33.6561 52.9846 33.6769 53.0003 33.6991 53.0213C33.7226 53.0409 33.7422 53.0606 33.7631 53.0841C33.7827 53.1064 33.7997 53.1287 33.8153 53.1522C33.8232 53.1653 33.8362 53.1706 33.8427 53.1824C33.8493 53.1941 33.8493 53.2085 33.8558 53.2203C33.8688 53.2452 33.878 53.2688 33.8858 53.2963C33.8976 53.3251 33.9054 53.3552 33.9106 53.3853C33.9171 53.4141 33.9211 53.4429 33.9224 53.4704C33.9237 53.4848 33.9302 53.4953 33.9302 53.5084L33.9302 56.8673L35.8531 57.9856L35.8531 29.5552L11.2935 15.3433L11.2935 29.1755L11.2935 32.9141L11.2935 34.4147L12.5833 35.169C12.5938 35.1795 12.6003 35.1899 12.6107 35.1965L12.6107 35.1965Z" id="Path" fill="currentColor" stroke="none"></path>
        <path d="M27.4577 86.0637C27.4577 86.0637 29.7201 84.7542 29.7201 84.7542C29.7201 84.7542 29.7214 84.7542 29.7214 84.7542C29.7214 84.7542 29.7214 84.7529 29.7214 84.7529C29.7214 84.7529 32.6195 83.0807 32.6195 83.0807C32.6195 83.0807 32.6195 79.7074 32.6195 79.7074C32.6195 79.7074 32.6195 57.2483 32.6195 57.2483C32.6195 57.2483 32.6195 54.6451 32.6195 54.6451C32.6195 54.6451 27.4577 57.6268 27.4577 57.6268C27.4577 57.6268 27.4577 86.0637 27.4577 86.0637Z" id="Path" fill="currentColor" fill-rule="evenodd" stroke="none"></path>
        <path d="M12.9084 46.2303C12.9084 46.2303 12.9084 60.7932 12.9084 60.7932C12.9084 60.7932 13.2165 60.6125 13.2165 60.6125C13.2165 60.6125 13.2165 46.411 13.2165 46.411C13.2165 46.411 12.9084 46.2303 12.9084 46.2303Z" id="Path" fill="currentColor" fill-rule="evenodd" stroke="none"></path>
        <path d="M23.9069 52.2015C23.9069 52.2015 23.9056 52.2029 23.9056 52.2029C23.9056 52.2029 21.655 53.511 21.655 53.511C21.655 53.511 26.805 56.4941 26.805 56.4941C26.805 56.4941 31.9642 53.5124 31.9642 53.5124C31.9642 53.5124 26.805 50.5293 26.805 50.5293C26.805 50.5293 23.9069 52.2015 23.9069 52.2015Z" id="Path" fill="currentColor" fill-rule="evenodd" stroke="none"></path>
        <path d="M21.0035 68.4916C21.0035 68.4916 21.0035 83.082 21.0035 83.082C21.0035 83.082 26.1523 86.0624 26.1523 86.0624C26.1523 86.0624 26.1523 57.6268 26.1523 57.6268C26.1523 57.6268 21.0035 54.6451 21.0035 54.6451C21.0035 54.6451 21.0035 68.4916 21.0035 68.4916Z" id="Path" fill="currentColor" fill-rule="evenodd" stroke="none"></path>
        <path d="M14.5219 101.046C14.5219 101.046 19.6981 98.0495 19.6981 98.0495C19.6981 98.0495 19.6981 83.4591 19.6981 83.4591C19.6981 83.4591 19.6981 69.6257 19.6981 69.6257C19.6981 69.6257 14.5219 72.61 14.5219 72.61C14.5219 72.61 14.5219 101.046 14.5219 101.046Z" id="Path" fill="currentColor" fill-rule="evenodd" stroke="none"></path>
        <path d="M36.1756 59.6945C36.1756 59.6945 36.1743 59.6932 36.1743 59.6932C36.1743 59.6932 36.173 59.6919 36.173 59.6919C36.173 59.6919 33.925 58.385 33.925 58.385C33.925 58.385 33.925 79.3303 33.925 79.3303C33.925 79.3303 39.075 82.3238 39.075 82.3238C39.075 82.3238 39.075 61.3667 39.075 61.3667C39.075 61.3667 36.1795 59.6945 36.1795 59.6945C36.1795 59.6945 36.1756 59.6945 36.1756 59.6945Z" id="Path" fill="currentColor" fill-rule="evenodd" stroke="none"></path>
        <path d="M58.807 75.0286C58.807 75.0286 59.119 75.2132 59.119 75.2132C59.119 75.2132 61.0485 74.1002 61.0485 74.1002C61.0485 74.1002 60.7391 73.9195 60.7391 73.9195C60.7391 73.9195 58.807 75.0286 58.807 75.0286Z" id="Path" fill="currentColor" fill-rule="evenodd" stroke="none"></path>
        <path d="M67.8513 39.0975C67.8513 39.0975 72.0392 41.5266 72.0392 41.5266C72.0392 41.5266 73 40.9727 73 40.9727C73 40.9727 73 12.5371 73 12.5371C73 12.5371 67.8513 15.5188 67.8513 15.5188C67.8513 15.5188 67.8513 39.0975 67.8513 39.0975Z" id="Path" fill="currentColor" fill-rule="evenodd" stroke="none"></path>
        <path d="M58.1569 73.8933C58.1569 73.8933 60.4154 72.5956 60.4154 72.5956C60.4154 72.5956 60.4167 72.5943 60.4167 72.5943C60.4167 72.5943 63.3187 70.909 63.3187 70.909C63.3187 70.909 63.3187 45.0897 63.3187 45.0897C63.3187 45.0897 63.3187 42.4838 63.3187 42.4838C63.3187 42.4838 58.1569 45.4682 58.1569 45.4682C58.1569 45.4682 58.1569 73.8933 58.1569 73.8933Z" id="Path" fill="currentColor" fill-rule="evenodd" stroke="none"></path>
        <path d="M53.3019 101.803C53.3019 101.803 58.4637 104.784 58.4637 104.784C58.4637 104.784 58.4637 76.346 58.4637 76.346C58.4637 76.346 57.1739 75.5891 57.1739 75.5891C57.1739 75.5891 57.1726 75.5865 57.1726 75.5865C57.1726 75.5865 53.3019 73.3617 53.3019 73.3617C53.3019 73.3617 53.3019 101.803 53.3019 101.803Z" id="Path" fill="currentColor" fill-rule="evenodd" stroke="none"></path>
        <path d="M71.3864 43.4175C71.3864 43.4175 66.2233 46.4123 66.2233 46.4123C66.2233 46.4123 66.2233 74.8375 66.2233 74.8375C66.2233 74.8375 71.3864 71.8531 71.3864 71.8531C71.3864 71.8531 71.3864 43.4175 71.3864 43.4175Z" id="Path" fill="currentColor" fill-rule="evenodd" stroke="none"></path>
        <path d="M62.6699 73.541L64.9192 74.8374L64.9192 46.4097L64.6242 46.2355L64.6242 71.2848C64.6242 71.3123 64.6111 71.3372 64.6085 71.3647C64.602 71.4105 64.5955 71.4524 64.5811 71.4969C64.5667 71.5362 64.5485 71.5729 64.5263 71.6095C64.5054 71.6436 64.4858 71.6789 64.4584 71.7104C64.4284 71.7444 64.3944 71.7719 64.3579 71.7994C64.3357 71.8151 64.3226 71.8374 64.2978 71.8531L62.0381 73.1678L62.6699 73.541L62.6699 73.541Z" id="Path" fill="currentColor" stroke="none"></path>
        <path d="M51.7014 50.7035C51.7014 50.7035 51.7014 70.9116 51.7014 70.9116C51.7014 70.9116 52.9742 71.6633 52.9742 71.6633C52.9742 71.6633 56.8515 73.8933 56.8515 73.8933C56.8515 73.8933 56.8515 45.4669 56.8515 45.4669C56.8515 45.4669 51.7014 42.4865 51.7014 42.4865C51.7014 42.4865 51.7014 50.7035 51.7014 50.7035Z" id="Path" fill="currentColor" fill-rule="evenodd" stroke="none"></path>
        <path d="M39.075 113.016C39.075 113.016 39.075 90.9377 39.075 90.9377C39.075 90.9377 39.075 84.5945 39.075 84.5945C39.075 84.5945 33.925 87.5762 33.925 87.5762C33.925 87.5762 33.925 115.997 33.925 115.997C33.925 115.997 39.075 113.016 39.075 113.016Z" id="Path" fill="currentColor" fill-rule="evenodd" stroke="none"></path>
        <path d="M27.4577 87.5762C27.4577 87.5762 27.4577 113.014 27.4577 113.014C27.4577 113.014 32.6195 116 32.6195 116C32.6195 116 32.6195 87.5749 32.6195 87.5749C32.6195 87.5749 30.0452 86.0781 30.0452 86.0781C30.0452 86.0781 27.4577 87.5762 27.4577 87.5762Z" id="Path" fill="currentColor" fill-rule="evenodd" stroke="none"></path>
        <path d="M62.0211 40.9884C62.0211 40.9884 62.0185 40.9858 62.0185 40.9858C62.0185 40.9858 62.0172 40.9858 62.0172 40.9858C62.0172 40.9858 57.5042 38.3564 57.5042 38.3564C57.5042 38.3564 52.3528 41.3512 52.3528 41.3512C52.3528 41.3512 57.5042 44.3329 57.5042 44.3329C57.5042 44.3329 62.6594 41.3538 62.6594 41.3538C62.6594 41.3538 62.0237 40.9897 62.0237 40.9897C62.0237 40.9897 62.0211 40.9884 62.0211 40.9884Z" id="Path" fill="currentColor" fill-rule="evenodd" stroke="none"></path>
        <path d="M33.925 83.4591C33.925 83.4866 33.9119 83.5128 33.908 83.5403C33.9028 83.5848 33.8963 83.6281 33.8819 83.6726C33.8675 83.7132 33.848 83.7485 33.8258 83.7852C33.8049 83.8205 33.7866 83.8546 33.7579 83.8847C33.7292 83.9201 33.6926 83.9476 33.6561 83.9751C33.6339 83.9921 33.6208 84.0143 33.596 84.0274L31.3493 85.3238L33.2723 86.4421L38.421 83.4604L33.9237 80.8454L33.9237 83.4591L33.925 83.4591Z" id="Path" fill="currentColor" stroke="none"></path>
        <path d="M40.3805 89.8049C40.3805 89.8049 45.5423 86.8193 45.5423 86.8193C45.5423 86.8193 45.5423 58.3824 45.5423 58.3824C45.5423 58.3824 40.3805 61.3667 40.3805 61.3667C40.3805 61.3667 40.3805 83.4591 40.3805 83.4591C40.3805 83.4591 40.3805 89.8049 40.3805 89.8049Z" id="Path" fill="currentColor" fill-rule="evenodd" stroke="none"></path>
        <path d="M37.1534 57.9908L42.6272 54.8205L50.396 50.3251L50.396 41.3498C50.396 41.3367 50.4025 41.3236 50.4038 41.3118C50.4051 41.2843 50.409 41.2568 50.4155 41.2293C50.4208 41.1992 50.4286 41.1704 50.439 41.1416C50.4495 41.1141 50.4599 41.0866 50.473 41.0604C50.4782 41.0499 50.4782 41.0368 50.4847 41.025C50.4913 41.0146 50.503 41.008 50.5095 40.9976C50.5265 40.974 50.5422 40.9517 50.5618 40.9295C50.5826 40.9046 50.6035 40.8849 50.6283 40.8627C50.6505 40.8443 50.6688 40.8286 50.6923 40.8129C50.7041 40.8051 50.7106 40.7933 50.7223 40.7867L57.1765 37.035C57.2026 37.0193 57.23 37.018 57.2561 37.0075C57.2966 36.9905 57.3371 36.9748 57.3789 36.9669C57.4232 36.9565 57.465 36.9565 57.5107 36.9578C57.5499 36.9578 57.5877 36.9578 57.6269 36.9656C57.6726 36.9748 57.7131 36.9918 57.7574 37.0102C57.7835 37.0206 57.8097 37.0219 57.8345 37.0363L61.6947 39.286L61.6947 15.3446L37.1534 29.5552L37.1534 57.9908L37.1534 57.9908Z" id="Path" fill="currentColor" stroke="none"></path>
        <path d="M37.8074 59.1235C37.8074 59.1235 39.7277 60.2313 39.7277 60.2313C39.7277 60.2313 44.8843 57.2509 44.8843 57.2509C44.8843 57.2509 42.9548 56.1431 42.9548 56.1431C42.9548 56.1431 37.8074 59.1235 37.8074 59.1235Z" id="Path" fill="currentColor" fill-rule="evenodd" stroke="none"></path>
        <path d="M64.9179 101.802C64.9179 101.802 64.9179 76.3486 64.9179 76.3486C64.9179 76.3486 62.3448 74.8636 62.3448 74.8636C62.3448 74.8636 59.7691 76.3486 59.7691 76.3486C59.7691 76.3486 59.7691 104.784 59.7691 104.784C59.7691 104.784 64.9179 101.802 64.9179 101.802Z" id="Path" fill="currentColor" fill-rule="evenodd" stroke="none"></path>
        <path d="M66.8748 40.0443L65.5732 39.3005L63.6529 40.4175L64.2939 40.7842C64.3056 40.792 64.3135 40.8025 64.3239 40.8104C64.3487 40.8274 64.3709 40.8444 64.3931 40.864C64.4166 40.885 64.4362 40.9046 64.4571 40.9282C64.4767 40.9505 64.4923 40.9714 64.508 40.995C64.5158 41.0081 64.5289 41.0146 64.5354 41.0264C64.5419 41.0382 64.5419 41.0526 64.5485 41.0631C64.5615 41.0893 64.5707 41.1142 64.5785 41.1403C64.5889 41.1691 64.5968 41.198 64.6033 41.2268C64.6085 41.2569 64.6137 41.2857 64.6151 41.3158C64.6164 41.3289 64.6229 41.3394 64.6229 41.3512L64.6229 44.7153L65.5746 45.2783L70.735 42.2822L66.8787 40.0456C66.8774 40.0443 66.8761 40.0456 66.8748 40.0443L66.8748 40.0443Z" id="Path" fill="currentColor" stroke="none"></path>
        <path d="M72.3473 11.4031C72.3473 11.4031 67.1985 8.42134 67.1985 8.42134C67.1985 8.42134 62.0498 11.4031 62.0498 11.4031C62.0498 11.4031 67.1985 14.3848 67.1985 14.3848C67.1985 14.3848 72.3473 11.4031 72.3473 11.4031Z" id="Path" fill="currentColor" fill-rule="evenodd" stroke="none"></path>
        <path d="M10.9554 35.7347C10.9554 35.7347 10.317 35.3602 10.317 35.3602C10.317 35.3602 10.3157 35.3602 10.3157 35.3602C10.3157 35.3602 8.70871 34.4318 8.70871 34.4318C8.70871 34.4318 8.70349 34.4305 8.70349 34.4305C8.70349 34.4305 5.79623 32.7517 5.79623 32.7517C5.79623 32.7517 4.50252 33.4811 4.50252 33.4811C4.50252 33.4811 4.50122 33.4811 4.50122 33.4811C4.50122 33.4811 1.27412 35.3589 1.27412 35.3589C1.27412 35.3589 1.27282 35.3589 1.27282 35.3589C1.27282 35.3589 0.643585 35.7321 0.643585 35.7321C0.643585 35.7321 5.80146 38.719 5.80146 38.719C5.80146 38.719 10.9554 35.7347 10.9554 35.7347Z" id="Path" fill="currentColor" fill-rule="evenodd" stroke="none"></path>
        <path d="M5.14873 39.8531C5.14873 39.8531 0 36.8727 0 36.8727C0 36.8727 0 65.2939 0 65.2939C0 65.2939 5.14873 68.2874 5.14873 68.2874C5.14873 68.2874 5.14873 39.8531 5.14873 39.8531Z" id="Path" fill="currentColor" fill-rule="evenodd" stroke="none"></path>
        <path d="M16.1485 10.269C16.1485 10.269 21.2973 7.2873 21.2973 7.2873C21.2973 7.2873 21.2973 6.92326 21.2973 6.92326C21.2973 6.92326 16.1485 9.90498 16.1485 9.90498C16.1485 9.90498 16.1485 10.269 16.1485 10.269Z" id="Path" fill="currentColor" fill-rule="evenodd" stroke="none"></path>
        <path d="M1.5992 33.6552C1.5992 33.6552 2.8681 32.9167 2.8681 32.9167C2.8681 32.9167 1.5992 32.186 1.5992 32.186C1.5992 32.186 1.5992 33.6552 1.5992 33.6552Z" id="Path" fill="currentColor" fill-rule="evenodd" stroke="none"></path>
        <path d="M62.7012 13.6698C62.7247 13.6855 62.7456 13.7025 62.7678 13.7222C62.7913 13.7431 62.8109 13.7628 62.8318 13.7863C62.8526 13.8099 62.8696 13.8322 62.8853 13.8571C62.8931 13.8675 62.9036 13.8728 62.9101 13.8846C62.9166 13.8963 62.9166 13.9094 62.9218 13.9199C62.9362 13.9461 62.9466 13.9723 62.9558 13.9998C62.9662 14.0299 62.9741 14.0587 62.9806 14.0901C62.9858 14.1176 62.9897 14.1451 62.991 14.1713C62.9923 14.1844 62.9989 14.1962 62.9989 14.2106L62.9989 39.2848L65.2456 37.9779C65.273 37.9622 65.3017 37.9609 65.3291 37.9504C65.367 37.9347 65.4035 37.9203 65.4427 37.9124C65.4884 37.9019 65.5315 37.9019 65.5771 37.9019C65.6163 37.9019 65.6542 37.9019 65.692 37.9098C65.7364 37.9177 65.7769 37.9347 65.82 37.9504C65.8461 37.9609 65.8735 37.9635 65.8983 37.9766L66.5497 38.3498L66.5497 15.5188L61.401 12.5371L61.401 12.9011L62.6764 13.6423C62.6842 13.6501 62.6895 13.6619 62.7012 13.6698L62.7012 13.6698Z" id="Path" fill="currentColor" stroke="none"></path>
        <path d="M36.5007 0C36.5007 0 22.2764 8.23277 22.2764 8.23277C22.2764 8.23277 15.8222 11.9701 15.8222 11.9701C15.8222 11.9701 11.9476 14.2106 11.9476 14.2106C11.9476 14.2106 36.5007 28.4212 36.5007 28.4212C36.5007 28.4212 61.042 14.2093 61.042 14.2093C61.042 14.2093 60.4167 13.8453 60.4167 13.8453C60.4167 13.8453 60.4167 13.8453 60.4167 13.8453C60.4167 13.8453 36.5007 0 36.5007 0Z" id="Path" fill="currentColor" fill-rule="evenodd" stroke="none"></path>
        <path d="M15.4958 8.77098C15.4958 8.77098 20.6445 5.78927 20.6445 5.78927C20.6445 5.78927 15.4958 2.80624 15.4958 2.80624C15.4958 2.80624 10.3366 5.78927 10.3366 5.78927C10.3366 5.78927 15.4958 8.77098 15.4958 8.77098Z" id="Path" fill="currentColor" fill-rule="evenodd" stroke="none"></path>
        <path d="M5.48293 31.4291C5.50642 31.416 5.53123 31.4147 5.55603 31.4056C5.59781 31.3872 5.63828 31.3728 5.68527 31.3637C5.72444 31.3558 5.76491 31.3558 5.80538 31.3558C5.84715 31.3558 5.88762 31.3571 5.9307 31.3663C5.97378 31.3741 6.01294 31.3898 6.05472 31.4069C6.07952 31.4173 6.10563 31.4187 6.12913 31.4331L9.02855 33.1053L9.99068 32.5396L9.99068 29.5552L8.70872 28.8167L8.70741 28.8167L7.40456 28.0716L2.25322 31.0507L4.17877 32.1624L5.48293 31.4291L5.48293 31.4291Z" id="Path" fill="currentColor" stroke="none"></path>
        <path d="M9.98808 14.2106C9.98808 14.1962 9.9946 14.1844 9.99591 14.1713C9.99721 14.1438 10.0011 14.1163 10.0077 14.0888C10.0129 14.0574 10.0207 14.0286 10.0325 13.9971C10.0416 13.9696 10.052 13.9434 10.0651 13.9186C10.0703 13.9068 10.0703 13.8937 10.0768 13.8832C10.0834 13.8727 10.0951 13.8662 10.1017 13.8557C10.1186 13.8295 10.1343 13.8073 10.1552 13.785C10.1761 13.7614 10.1943 13.7418 10.2178 13.7221C10.2413 13.7025 10.2622 13.6855 10.2883 13.6685C10.2988 13.6606 10.3053 13.6488 10.3157 13.6423L14.8444 11.0233L14.8444 9.90497L9.6826 6.92195L9.6826 27.8673L9.98939 28.0454L9.98939 14.2106L9.98808 14.2106Z" id="Path" fill="currentColor" stroke="none"></path>
        <path d="M12.5833 66.2393C12.5833 66.2393 8.70612 68.4916 8.70612 68.4916C8.70612 68.4916 13.8692 71.4746 13.8692 71.4746C13.8692 71.4746 19.0427 68.4916 19.0427 68.4916C19.0427 68.4916 13.8692 65.4968 13.8692 65.4968C13.8692 65.4968 12.5846 66.238 12.5846 66.238C12.5846 66.238 12.5833 66.2393 12.5833 66.2393Z" id="Path" fill="currentColor" fill-rule="evenodd" stroke="none"></path>
    </g>
</svg>