<svg width="116px" height="116px" viewBox="0 0 116 116" version="1.1" xmlnsXlink="http://www.w3.org/1999/xlink" xmlns="http://www.w3.org/2000/svg" className="text-green-500">
    <g id="Group" transform="translate(44 0)">
        <path d="M13.9993 15.3299C13.9993 15.3299 27.3411 7.66559 27.3411 7.66559C27.3411 7.66559 13.9993 0 13.9993 0C13.9993 0 0.657547 7.66559 0.657547 7.66559C0.657547 7.66559 13.9993 15.3299 13.9993 15.3299Z" id="Path" fill="currentColor" fill-rule="evenodd" stroke="none"></path>
        <path d="M3.34038 26.0452C3.34038 26.0452 5.16575 27.0914 5.16575 27.0914C5.16575 27.0914 5.16706 27.0928 5.16706 27.0928C5.16706 27.0928 8.82175 29.1958 8.82175 29.1958C8.82175 29.1958 10.6563 30.2551 10.6563 30.2551C10.6563 30.2551 10.6576 30.2551 10.6576 30.2551C10.6576 30.2551 13.3418 31.7846 13.3418 31.7846C13.3418 31.7846 13.3418 16.4639 13.3418 16.4639C13.3418 16.4639 0 8.79826 0 8.79826C0 8.79826 0 24.1294 0 24.1294C0 24.1294 3.33774 26.0439 3.33774 26.0439C3.33774 26.0439 3.34038 26.0452 3.34038 26.0452Z" id="Path" fill="currentColor" fill-rule="evenodd" stroke="none"></path>
        <path d="M17.0096 111.799C17.0096 111.799 17.0096 53.007 17.0096 53.007C17.0096 53.007 14.6569 54.3466 14.6569 54.3466C14.6569 54.3466 14.6569 110.449 14.6569 110.449C14.6569 110.449 17.0096 111.799 17.0096 111.799Z" id="Path" fill="currentColor" fill-rule="evenodd" stroke="none"></path>
        <path d="M20.663 110.449C20.663 110.449 20.663 83.4572 20.663 83.4572C20.663 83.4572 20.663 50.9079 20.663 50.9079C20.663 50.9079 18.3248 52.2554 18.3248 52.2554C18.3248 52.2554 18.3248 111.798 18.3248 111.798C18.3248 111.798 20.663 110.449 20.663 110.449Z" id="Path" fill="currentColor" fill-rule="evenodd" stroke="none"></path>
        <path d="M10.9891 116C10.9891 116 13.3418 114.659 13.3418 114.659C13.3418 114.659 13.3418 110.828 13.3418 110.828C13.3418 110.828 13.3418 55.1061 13.3418 55.1061C13.3418 55.1061 10.9891 56.4653 10.9891 56.4653C10.9891 56.4653 10.9891 116 10.9891 116Z" id="Path" fill="currentColor" fill-rule="evenodd" stroke="none"></path>
        <path d="M22.4909 83.3735C22.4909 83.3735 22.4909 49.8512 22.4909 49.8512C22.4909 49.8512 21.9781 50.1485 21.9781 50.1485C21.9781 50.1485 21.9781 83.0788 21.9781 83.0788C21.9781 83.0788 22.4909 83.3735 22.4909 83.3735Z" id="Path" fill="currentColor" fill-rule="evenodd" stroke="none"></path>
        <path d="M25.617 47.7443C25.6104 47.7914 25.6039 47.8346 25.5894 47.8805C25.5762 47.9184 25.5578 47.9538 25.5355 47.9892C25.5144 48.0258 25.4947 48.0612 25.4658 48.0926C25.4368 48.1267 25.4013 48.1542 25.3658 48.179C25.3435 48.1974 25.329 48.2196 25.304 48.2353L23.8061 49.0917L23.8061 83.3708L26.1588 82.0208L26.1588 26.6868L25.6328 26.9893L25.6328 47.6657C25.6328 47.6932 25.6196 47.7181 25.617 47.7443L25.617 47.7443Z" id="Path" fill="currentColor" stroke="none"></path>
        <path d="M9.14917 54.6517C9.14917 54.6517 9.6739 54.9529 9.6739 54.9529C9.6739 54.9529 9.6739 31.2019 9.6739 31.2019C9.6739 31.2019 9.14917 30.8981 9.14917 30.8981C9.14917 30.8981 9.14917 54.6517 9.14917 54.6517Z" id="Path" fill="currentColor" fill-rule="evenodd" stroke="none"></path>
        <path d="M10.9891 54.9503L13.6693 53.3998C13.6706 53.3998 13.6706 53.3998 13.6706 53.3998C13.6719 53.3998 13.6719 53.3985 13.6732 53.3985L17.3411 51.3073C17.3411 51.3073 17.3411 51.3073 17.3424 51.3073L20.9892 49.2056C20.9905 49.2056 20.9905 49.2056 20.9905 49.2056L22.8172 48.145L22.8185 48.145C22.8198 48.1437 22.8198 48.1437 22.8198 48.1437L24.3177 47.286L24.3177 27.7462L14.3281 33.4816C14.3281 33.4829 14.3268 33.4816 14.3255 33.4829C14.3163 33.4882 14.3045 33.4869 14.2953 33.4921C14.2058 33.5366 14.1085 33.5694 14.002 33.5694C14.002 33.5694 14.0007 33.5707 13.9994 33.5707C13.998 33.5707 13.9967 33.5694 13.9967 33.5694C13.8902 33.5681 13.7942 33.5379 13.7035 33.4921C13.6943 33.4882 13.6824 33.4882 13.6745 33.4829C13.6732 33.4829 13.6732 33.4829 13.6732 33.4829L10.9891 31.9535L10.9891 54.9503L10.9891 54.9503Z" id="Path" fill="currentColor" stroke="none"></path>
        <path d="M3.34301 29.2848C3.34301 29.2848 3.34038 29.2861 3.34038 29.2861C3.34038 29.2861 3.33907 29.2861 3.33907 29.2861C3.33907 29.2861 2.50003 29.7667 2.50003 29.7667C2.50003 29.7667 4.83698 31.1128 4.83698 31.1128C4.83698 31.1128 7.17787 29.7641 7.17787 29.7641C7.17787 29.7641 4.83961 28.4166 4.83961 28.4166C4.83961 28.4166 3.34301 29.2848 3.34301 29.2848Z" id="Path" fill="currentColor" fill-rule="evenodd" stroke="none"></path>
        <path d="M9.14918 92.9247C9.14918 92.9522 9.13603 92.9757 9.13208 93.0045C9.12682 93.0477 9.12156 93.091 9.10578 93.1342C9.09131 93.1748 9.0729 93.2114 9.05054 93.2481C9.0295 93.2834 9.01109 93.3175 8.98216 93.3476C8.95192 93.3829 8.91772 93.4118 8.87958 93.4393C8.85854 93.455 8.84539 93.4759 8.82041 93.4903L7.31987 94.3611L7.31987 114.659L9.6726 115.999L9.6726 56.4653L9.14787 56.1641L9.14787 92.9247L9.14918 92.9247Z" id="Path" fill="currentColor" stroke="none"></path>
        <path d="M1.84119 92.5462C1.84119 92.5462 4.17945 93.895 4.17945 93.895C4.17945 93.895 4.17945 32.2481 4.17945 32.2481C4.17945 32.2481 1.84119 30.8994 1.84119 30.8994C1.84119 30.8994 1.84119 92.5462 1.84119 92.5462Z" id="Path" fill="currentColor" fill-rule="evenodd" stroke="none"></path>
        <path d="M5.49449 93.8989C5.49449 93.8989 6.33485 93.4157 6.33485 93.4157C6.33485 93.4157 6.33747 93.4157 6.33747 93.4157C6.33747 93.4157 7.83407 92.5475 7.83407 92.5475C7.83407 92.5475 7.83407 55.0275 7.83407 55.0275C7.83407 55.0275 7.83407 30.8994 7.83407 30.8994C7.83407 30.8994 5.49449 32.2481 5.49449 32.2481C5.49449 32.2481 5.49449 93.8989 5.49449 93.8989Z" id="Path" fill="currentColor" fill-rule="evenodd" stroke="none"></path>
        <path d="M26.4903 24.9871C26.4903 24.9871 26.4903 24.9858 26.4903 24.9858C26.4903 24.9858 28 24.1268 28 24.1268C28 24.1268 28 8.79826 28 8.79826C28 8.79826 14.6569 16.4639 14.6569 16.4639C14.6569 16.4639 14.6569 31.7806 14.6569 31.7806C14.6569 31.7806 24.6465 26.0452 24.6465 26.0452C24.6465 26.0452 26.4876 24.9871 26.4876 24.9871C26.4876 24.9871 26.4903 24.9871 26.4903 24.9871Z" id="Path" fill="currentColor" fill-rule="evenodd" stroke="none"></path>
    </g>
</svg>