<svg width="116px" height="116px" viewBox="0 0 116 116" version="1.1" xmlnsXlink="http://www.w3.org/1999/xlink" xmlns="http://www.w3.org/2000/svg" className="text-green-500">
    <g id="Group" transform="translate(30 0)" clip-path="url(#clip_1)">
        <path d="M20.1851 116L28.995 110.909L28.995 92.8246L28.9011 92.8796C28.7993 92.9373 28.6885 92.9648 28.5776 92.9648C28.4655 92.9648 28.3546 92.9373 28.2568 92.881C28.219 92.8587 28.1968 92.8168 28.1642 92.7893C28.1107 92.7435 28.0507 92.7055 28.0142 92.64L26.5561 90.1088L25.3236 90.8146C25.3236 90.8159 25.3236 90.8159 25.3236 90.8159L24.8476 91.0909L26.3057 93.6313C26.4857 93.9443 26.3787 94.345 26.0657 94.5257L23.5408 95.9858L20.1864 97.9395L20.1864 116L20.1851 116Z" id="Path" fill="currentColor" stroke="none"></path>
        <path d="M10.0997 110.91L18.8809 115.999L18.8809 97.4839L15.5161 91.6069C15.5148 91.6069 15.5148 91.6069 15.5148 91.6069C15.3348 91.2939 15.4417 90.8932 15.7548 90.7125L16.9729 90.008L14.4884 85.6984L10.101 88.248L10.101 110.91L10.0997 110.91Z" id="Path" fill="currentColor" stroke="none"></path>
        <path d="M18.2302 46.8811L17.4229 46.4123L16.1382 47.1613C16.1369 47.1613 16.1356 47.1613 16.1356 47.1613C16.1252 47.1666 16.1121 47.1666 16.103 47.1718C16.0156 47.2176 15.9178 47.2491 15.8109 47.2491C15.7039 47.2491 15.6087 47.2176 15.5187 47.1718C15.5083 47.1666 15.4966 47.1679 15.4874 47.1613C15.4874 47.1613 15.4861 47.1613 15.4848 47.1613L7.82395 42.7234L6.55104 43.4646C6.55104 43.4646 6.55104 43.4646 6.54974 43.4646C6.54974 43.4646 6.54974 43.4646 6.54974 43.4646L0.653454 46.8798L9.44767 51.9816L18.2302 46.8811L18.2302 46.8811Z" id="Path" fill="currentColor" stroke="none"></path>
        <path d="M24.1055 90.0079C24.1055 90.0079 22.9748 88.0398 22.9748 88.0398C22.9748 88.0398 22.3187 88.4234 22.3187 88.4234C22.3187 88.4234 23.4508 90.3877 23.4508 90.3877C23.4508 90.3877 23.6295 90.2829 23.6295 90.2829C23.6295 90.2829 24.1055 90.0079 24.1055 90.0079Z" id="Path" fill="currentColor" fill-rule="evenodd" stroke="none"></path>
        <path d="M35.1443 96.7911L33.6862 94.252L32.472 94.9526C32.4707 94.9539 32.4707 94.9552 32.4694 94.9552C32.3663 95.0141 32.2542 95.0416 32.1433 95.0416C31.9177 95.0416 31.6986 94.9238 31.5773 94.7143L30.2992 92.4868L30.2992 110.154L39.0934 105.053L39.0934 99.1338C39.0464 99.1181 38.9956 99.1181 38.9512 99.0945C38.9199 99.0749 38.9017 99.0395 38.8717 99.016C38.813 98.9675 38.7504 98.9243 38.7099 98.8536L37.2545 96.3158L36.0376 97.0281C36.0363 97.0294 36.0363 97.0308 36.035 97.0308C35.932 97.0897 35.8198 97.1172 35.709 97.1172C35.5968 97.1172 35.486 97.0897 35.3882 97.0334C35.3334 97.0033 35.2969 96.9443 35.2512 96.8972C35.2173 96.8618 35.1717 96.8383 35.1469 96.7924L35.1469 96.7924C35.1456 96.7924 35.1443 96.7924 35.1443 96.7911L35.1443 96.7911Z" id="Path" fill="currentColor" stroke="none"></path>
        <path d="M37.8179 87.7072L37.8179 87.7072C37.7148 87.7687 37.6027 87.7962 37.4918 87.7962C37.3797 87.7962 37.2688 87.7661 37.171 87.7111C37.0745 87.6561 36.991 87.5749 36.9297 87.4715C36.9297 87.4715 36.9284 87.4701 36.9271 87.4688C36.9271 87.4688 36.9258 87.4688 36.9258 87.4675C36.9258 87.4662 36.9258 87.4662 36.9245 87.4649L35.4703 84.9389L34.2535 85.6421C34.2522 85.6434 34.2522 85.6447 34.2509 85.6447C34.1479 85.7036 34.0357 85.7311 33.9248 85.7311C33.6992 85.7311 33.4801 85.6133 33.3588 85.4038L31.9007 82.8647L30.6865 83.5652C30.6852 83.5666 30.6852 83.5679 30.6839 83.5679C30.5809 83.6268 30.4687 83.6543 30.3578 83.6543C30.1322 83.6543 29.9131 83.5364 29.7918 83.3269L28.3363 80.7891L27.1195 81.5028C27.1195 81.5028 27.1195 81.5028 27.1182 81.5028L27.1182 81.5028C27.0152 81.563 26.903 81.5918 26.7909 81.5918C26.5705 81.5918 26.3579 81.4766 26.2353 81.2736C26.2327 81.2697 26.2288 81.2697 26.2275 81.2671C26.2275 81.2658 26.2261 81.2658 26.2261 81.2645L24.7563 78.7254L23.5369 79.4417C23.5356 79.4417 23.5356 79.4417 23.5343 79.443C23.4313 79.5032 23.3191 79.5307 23.2082 79.5307C23.0961 79.5307 22.9852 79.5006 22.8874 79.4456C22.8509 79.4246 22.8287 79.3827 22.7974 79.3565C22.7426 79.3094 22.6839 79.2714 22.6461 79.2073C22.6461 79.2073 22.6461 79.2059 22.6461 79.2046C22.6448 79.2046 22.6435 79.2046 22.6435 79.2033L20.8607 76.0946C20.8268 76.0344 20.8111 75.9689 20.7968 75.9047C20.7929 75.8851 20.7811 75.8694 20.7785 75.851C20.7694 75.779 20.7785 75.7096 20.7929 75.6402C20.7955 75.6271 20.7916 75.6127 20.7955 75.6009C20.8163 75.5237 20.8515 75.4529 20.8985 75.3875C20.9011 75.3835 20.9011 75.3783 20.9037 75.3757C20.9468 75.3181 21.0041 75.2722 21.0654 75.2303C21.0785 75.2225 21.085 75.2094 21.0967 75.2028L21.098 75.2028L21.0993 75.2015C21.0993 75.2015 21.1006 75.2015 21.1006 75.2002L22.3201 74.4865L20.8607 71.9422C20.8163 71.8636 20.7889 71.7798 20.7785 71.696C20.7485 71.4433 20.8659 71.184 21.1006 71.0491C21.102 71.0478 21.1033 71.0478 21.1033 71.0478L22.3201 70.3459L19.4026 65.2716L16.9689 66.6846L18.427 69.2263C18.607 69.5393 18.5001 69.94 18.1871 70.1207L15.1848 71.8558L16.6429 74.3975C16.6768 74.4577 16.6924 74.5232 16.7068 74.5874C16.7107 74.607 16.7225 74.6227 16.7251 74.6411C16.7342 74.7131 16.7251 74.7825 16.7107 74.8519C16.7081 74.865 16.712 74.8794 16.7081 74.8912C16.6872 74.9684 16.652 75.0391 16.6051 75.1046C16.6025 75.1085 16.6025 75.1138 16.5999 75.1164C16.5568 75.174 16.4994 75.2198 16.4381 75.2617C16.4251 75.2696 16.4186 75.2827 16.4068 75.2892L16.4055 75.2892L16.4042 75.2906C16.4042 75.2906 16.4029 75.2906 16.4029 75.2919L14.9474 76.143L14.9474 79.7166L16.6442 82.6735C16.6755 82.7285 16.6872 82.7887 16.7029 82.8489C16.7081 82.8725 16.7224 82.8935 16.7264 82.9183C16.7355 82.9891 16.7264 83.0585 16.712 83.1292C16.7094 83.141 16.7133 83.1554 16.7094 83.1672C16.6885 83.2444 16.6533 83.3151 16.6064 83.3806C16.6038 83.3845 16.6038 83.3885 16.6012 83.3937C16.5581 83.45 16.5007 83.4958 16.4394 83.5364C16.4264 83.5456 16.4199 83.5574 16.4081 83.5639L16.4068 83.5652L16.4055 83.5666L16.4042 83.5666L15.1809 84.2855L15.2878 84.4753C15.2878 84.4753 15.2891 84.4753 15.2891 84.4767L18.427 89.9176C18.427 89.9189 18.4283 89.9202 18.4283 89.9202C18.4714 89.9962 18.4962 90.076 18.5079 90.1572C18.5079 90.1612 18.5105 90.1638 18.5105 90.1664C18.5327 90.3327 18.4857 90.5029 18.3853 90.6378C18.3853 90.6391 18.3853 90.6404 18.384 90.6417C18.3553 90.6797 18.3123 90.7072 18.2744 90.7386C18.2471 90.7635 18.2249 90.7936 18.191 90.8133C18.191 90.8133 18.191 90.8133 18.1897 90.8133C18.1897 90.8146 18.1897 90.8146 18.1897 90.8146L16.9702 91.5204L19.8799 96.6025L22.3214 95.1791L20.8633 92.6374C20.8189 92.5588 20.7916 92.475 20.7811 92.3912C20.7511 92.1385 20.8685 91.8792 21.1033 91.7443C21.1046 91.743 21.1059 91.743 21.1059 91.743L22.3214 91.0411L20.8672 88.5177L20.8672 88.5177L20.8672 88.5177L20.8659 88.5151C20.8476 88.485 20.845 88.4509 20.8346 88.4195C20.815 88.3698 20.7902 88.3213 20.7837 88.2702C20.7785 88.227 20.7889 88.1838 20.7929 88.1393C20.7955 88.0987 20.7902 88.0581 20.8007 88.0188C20.8124 87.9782 20.8372 87.9402 20.8581 87.901C20.8763 87.8656 20.8855 87.8263 20.9102 87.7936C20.9311 87.7661 20.9624 87.7477 20.9885 87.7242C21.025 87.6888 21.0576 87.6469 21.1033 87.622L22.8861 86.5757C22.8874 86.5744 22.8874 86.5731 22.8887 86.5731C22.9357 86.5456 22.9865 86.5378 23.0361 86.5234C23.0674 86.5142 23.0987 86.4946 23.1313 86.4919C23.1835 86.4841 23.2343 86.4946 23.2865 86.5011C23.3165 86.505 23.3491 86.4998 23.3791 86.5076C23.426 86.5207 23.4665 86.5482 23.5108 86.5718C23.5408 86.5875 23.5773 86.598 23.6047 86.6177C23.6412 86.6452 23.6686 86.6884 23.6999 86.725C23.726 86.7538 23.756 86.7761 23.7769 86.8102C23.7769 86.8115 23.7769 86.8115 23.7769 86.8115C23.7782 86.8128 23.7795 86.8128 23.7795 86.8141L25.2376 89.3558L26.4713 88.6487C26.5079 88.6264 26.5509 88.6212 26.5887 88.6094C26.6305 88.595 26.6696 88.574 26.7139 88.5675C26.7557 88.5623 26.7961 88.574 26.8391 88.5767C26.8796 88.5793 26.9213 88.5741 26.963 88.5858C27.0217 88.6016 27.0739 88.633 27.1274 88.667C27.1469 88.6775 27.1691 88.6827 27.1887 88.6945C27.246 88.7377 27.2917 88.7967 27.3334 88.8608C27.3412 88.8713 27.3543 88.8792 27.3608 88.8896L27.3608 88.891C27.3621 88.891 27.3634 88.8923 27.3634 88.8936C27.3634 88.8936 27.3634 88.8949 27.3647 88.8962L28.8189 91.4196L29.321 91.1302C29.3223 91.1302 29.3223 91.1289 29.3223 91.1289L30.0357 90.7151C30.0357 90.7151 30.0357 90.7151 30.037 90.7138C30.0618 90.6994 30.0866 90.6994 30.1127 90.6889C30.1674 90.664 30.2235 90.6378 30.2809 90.63C30.35 90.6221 30.4165 90.6326 30.4831 90.6444C30.4987 90.6483 30.5144 90.6431 30.5287 90.6483C30.5991 90.6666 30.663 90.702 30.723 90.7413C30.7322 90.7478 30.7452 90.7504 30.7543 90.7583C30.8039 90.795 30.843 90.8486 30.8821 90.901C30.8965 90.9207 30.9147 90.9312 30.9265 90.9521L30.9265 90.9521C30.9265 90.9521 30.9278 90.9521 30.9278 90.9534L32.3859 93.4938L33.6001 92.7906C33.6014 92.7906 33.6014 92.7906 33.6027 92.7893C33.6457 92.7644 33.6927 92.7579 33.7383 92.7435C33.7749 92.7317 33.8114 92.7121 33.8492 92.7068C34.1009 92.6754 34.3604 92.7932 34.4948 93.0303L35.9503 95.5681L37.1671 94.8557C37.1684 94.8544 37.1684 94.8531 37.1697 94.8531C37.2075 94.8308 37.2492 94.8256 37.2897 94.8125C37.3301 94.7994 37.3705 94.7771 37.4136 94.7719C37.4527 94.7667 37.4905 94.7771 37.5283 94.7784C37.5727 94.7811 37.6183 94.7771 37.664 94.7876C37.7148 94.802 37.7592 94.8308 37.8061 94.857C37.8335 94.8727 37.8635 94.8806 37.887 94.8976C37.9457 94.9408 37.9926 94.9998 38.0344 95.0639C38.0409 95.0744 38.0526 95.0809 38.0592 95.0914L38.0592 95.0914C38.0605 95.0927 38.0618 95.0927 38.0618 95.094L39.5251 97.6436L40.7484 96.9299C40.7888 96.9064 40.8345 96.9011 40.8788 96.8867C40.9167 96.8736 40.9545 96.8527 40.9936 96.8475C41.244 96.816 41.5048 96.9326 41.6405 97.1683C41.6405 97.1696 41.6405 97.1709 41.6405 97.1709L43.0973 99.6982L44.3167 98.9924C44.6284 98.8104 45.0275 98.9178 45.2088 99.2334L46.6656 101.774L47.8837 101.069C48.1954 100.887 48.5945 100.995 48.7758 101.31L50.2325 103.849L54.466 101.384L49.78 93.2071L48.5358 93.926L48.5345 93.926C48.4327 93.9849 48.3206 94.0124 48.2097 94.0124C47.9841 94.0124 47.765 93.8946 47.6437 93.685L46.1869 91.1446L44.9688 91.8491C44.8658 91.9081 44.7536 91.9355 44.6427 91.9355C44.5306 91.9355 44.4197 91.9081 44.3219 91.8517C44.2254 91.798 44.1419 91.7156 44.0806 91.6134C44.0806 91.6108 44.0793 91.6108 44.078 91.6095C44.078 91.6082 44.0767 91.6082 44.0767 91.6082C44.0767 91.6082 44.0767 91.6069 44.0754 91.6056L42.6212 89.0809L41.4057 89.7814C41.4044 89.7827 41.4044 89.7841 41.4031 89.7841C41.3001 89.8443 41.1879 89.8731 41.0758 89.8731C40.9636 89.8731 40.8527 89.843 40.7549 89.788C40.7028 89.7605 40.6728 89.7081 40.6323 89.6688C40.5906 89.6282 40.5397 89.5994 40.5084 89.5457L40.5071 89.5457C40.5071 89.5444 40.5071 89.5444 40.5071 89.5444L40.5071 89.5431L39.0373 87.004L37.8179 87.7072L37.8179 87.7072Z" id="Path" fill="currentColor" stroke="none"></path>
        <path d="M23.4521 94.5257C23.4521 94.5257 24.8476 93.7164 24.8476 93.7164C24.8476 93.7164 23.7156 91.7456 23.7156 91.7456C23.7156 91.7456 23.5382 91.8477 23.5382 91.8477C23.5382 91.8477 23.5356 91.8477 23.5356 91.8477C23.5356 91.8477 22.3201 92.5509 22.3201 92.5509C22.3201 92.5509 23.4521 94.5257 23.4521 94.5257Z" id="Path" fill="currentColor" fill-rule="evenodd" stroke="none"></path>
        <path d="M8.79553 53.1169C8.79553 53.1169 0 48.0151 0 48.0151C0 48.0151 0 67.8618 0 67.8618C0 67.8618 0 70.469 0 70.469C0 70.469 0 81.635 0 81.635C0 81.635 8.79553 86.7368 8.79553 86.7368C8.79553 86.7368 8.79553 53.1169 8.79553 53.1169Z" id="Path" fill="currentColor" fill-rule="evenodd" stroke="none"></path>
        <path d="M47.4912 90.385C47.4912 90.385 47.4912 90.385 47.4912 90.385C47.4912 90.385 47.4899 90.385 47.4899 90.385C47.4899 90.385 47.4899 90.3864 47.4899 90.3864C47.4899 90.3864 47.3125 90.4885 47.3125 90.4885C47.3125 90.4885 48.4459 92.4632 48.4459 92.4632C48.4459 92.4632 49.6914 91.743 49.6914 91.743C49.6914 91.743 49.6927 91.743 49.6927 91.743C49.6927 91.743 49.694 91.743 49.694 91.743C49.694 91.743 49.8466 91.6539 49.8466 91.6539C49.8466 91.6539 48.6976 89.6805 48.6976 89.6805C48.6976 89.6805 47.4912 90.385 47.4912 90.385Z" id="Path" fill="currentColor" fill-rule="evenodd" stroke="none"></path>
        <path d="M46.0957 89.6806C46.0957 89.6806 46.2704 89.5797 46.2704 89.5797C46.2704 89.5797 45.1306 87.6194 45.1306 87.6194C45.1306 87.6194 43.9268 88.3213 43.9268 88.3213C43.9268 88.3213 43.9242 88.3226 43.9242 88.3226C43.9242 88.3226 43.9229 88.3226 43.9229 88.3226C43.9229 88.3226 43.9229 88.3239 43.9229 88.3239C43.9229 88.3239 43.7468 88.4261 43.7468 88.4261C43.7468 88.4261 44.8776 90.3877 44.8776 90.3877C44.8776 90.3877 46.0957 89.6806 46.0957 89.6806Z" id="Path" fill="currentColor" fill-rule="evenodd" stroke="none"></path>
        <path d="M57 99.9195C57 99.9195 52.3036 91.7456 52.3036 91.7456C52.3036 91.7456 51.0763 92.4593 51.0763 92.4593C51.0763 92.4593 51.0737 92.4606 51.0737 92.4606C51.0737 92.4606 51.0711 92.4606 51.0711 92.4606C51.0711 92.4606 51.0698 92.4606 51.0698 92.4606C51.0698 92.4606 51.0685 92.4619 51.0685 92.4619C51.0685 92.4619 51.0659 92.4632 51.0659 92.4632C51.0659 92.4632 50.9094 92.5549 50.9094 92.5549C50.9094 92.5549 55.5915 100.727 55.5915 100.727C55.5915 100.727 57 99.9195 57 99.9195Z" id="Path" fill="currentColor" fill-rule="evenodd" stroke="none"></path>
        <path d="M42.5274 87.622C42.5274 87.622 42.53 87.6194 42.53 87.6194C42.53 87.6194 42.7048 87.5173 42.7048 87.5173C42.7048 87.5173 41.5636 85.5425 41.5636 85.5425C41.5636 85.5425 40.3611 86.2431 40.3611 86.2431C40.3611 86.2431 40.3611 86.2444 40.3611 86.2444C40.3611 86.2444 40.3585 86.2457 40.3585 86.2457C40.3585 86.2457 40.3559 86.2457 40.3559 86.2457C40.3559 86.2457 40.352 86.2497 40.352 86.2497C40.352 86.2497 40.1707 86.3531 40.1707 86.3531C40.1707 86.3531 41.3106 88.3252 41.3106 88.3252C41.3106 88.3252 42.5274 87.622 42.5274 87.622Z" id="Path" fill="currentColor" fill-rule="evenodd" stroke="none"></path>
        <path d="M34.0214 26.9559L35.9686 25.831C35.9803 25.8245 35.9933 25.8245 36.0038 25.8192C36.0429 25.7996 36.0846 25.7891 36.1277 25.7786C36.1694 25.7668 36.2111 25.7551 36.2555 25.7524C36.2685 25.7524 36.2803 25.7446 36.2933 25.7446C36.3207 25.7446 36.3455 25.7577 36.3742 25.7603C36.4185 25.7655 36.4602 25.7721 36.5046 25.7865C36.5437 25.8009 36.5802 25.8205 36.6167 25.8415C36.652 25.8624 36.6859 25.8821 36.7172 25.9096C36.7511 25.9397 36.7785 25.9737 36.8059 26.0104C36.8228 26.0327 36.845 26.0471 36.8593 26.072C36.8658 26.0837 36.8658 26.0981 36.8724 26.1099C36.8919 26.1479 36.9011 26.1898 36.9128 26.2317C36.9245 26.2749 36.9363 26.3168 36.9389 26.3614C36.9402 26.3745 36.9467 26.3862 36.9467 26.3993L36.9467 29.7935C36.9467 29.821 36.9337 29.8446 36.9311 29.8708C36.9245 29.9166 36.9193 29.9611 36.9037 30.0057C36.8893 30.0463 36.8698 30.0816 36.8489 30.117C36.828 30.1523 36.8085 30.1864 36.7811 30.2178C36.7498 30.2532 36.7133 30.282 36.6754 30.3108C36.6546 30.3265 36.6415 30.3474 36.618 30.3619L34.0214 31.8625L34.0214 38.2882C34.0214 38.3157 34.0083 38.3406 34.0044 38.3681C33.9992 38.4139 33.9927 38.4558 33.9783 38.499C33.964 38.5396 33.9444 38.575 33.9223 38.6116C33.9014 38.647 33.8831 38.6811 33.8544 38.7125C33.8258 38.7478 33.7892 38.774 33.7527 38.8028C33.7306 38.8199 33.7175 38.8421 33.6927 38.8565L31.0961 40.3572L31.0961 42.2403L35.9659 39.4131C35.9777 39.4065 35.9907 39.4065 36.0012 39.4013C36.039 39.3816 36.0794 39.3712 36.1211 39.3594C36.1655 39.3463 36.2085 39.3345 36.2555 39.3319C36.2685 39.3319 36.2803 39.3253 36.292 39.3253C36.3181 39.3253 36.3403 39.3371 36.3663 39.3397C36.4133 39.345 36.4576 39.3515 36.502 39.3672C36.5411 39.3803 36.5763 39.4 36.6128 39.4209C36.648 39.4419 36.682 39.4615 36.7132 39.489C36.7485 39.5191 36.7759 39.5545 36.8032 39.5925C36.8202 39.6134 36.8411 39.6278 36.8554 39.6514C36.8619 39.6632 36.8619 39.6763 36.8685 39.688C36.888 39.7273 36.8984 39.7692 36.9102 39.8138C36.9219 39.8557 36.9337 39.8963 36.9363 39.9408C36.9376 39.9539 36.9441 39.9657 36.9441 39.9801L36.9441 42.2455L38.9056 41.1167C38.9174 41.1102 38.9304 41.1102 38.9408 41.1049C38.98 41.0853 39.0217 41.0748 39.0673 41.063C39.1091 41.0512 39.1482 41.0394 39.1925 41.0368C39.2056 41.0368 39.2173 41.029 39.2304 41.029C39.2591 41.029 39.2838 41.0421 39.3112 41.046C39.3556 41.0512 39.3973 41.0578 39.4403 41.0722C39.4808 41.0866 39.5173 41.1049 39.5525 41.1272C39.5877 41.1481 39.6216 41.1678 39.6529 41.1953C39.6881 41.2254 39.7155 41.2621 39.7429 41.3C39.7599 41.3223 39.7807 41.3354 39.7951 41.359C39.8016 41.3707 39.8016 41.3825 39.8068 41.3943C39.8277 41.4336 39.8368 41.4768 39.8486 41.52C39.8603 41.5632 39.872 41.6038 39.8746 41.647C39.8759 41.6601 39.8825 41.6719 39.8825 41.685L39.8825 43.9557L47.3647 39.6016L47.3647 30.3828L47.3647 28.264L47.3647 13.9539L34.0201 21.6786L34.0201 26.9559L34.0214 26.9559Z" id="Path" fill="currentColor" stroke="none"></path>
        <path d="M40.3976 69.1634L49.1788 64.0747L49.1788 30.4601L48.6702 30.7573L48.6702 39.9775C48.6702 40.005 48.6571 40.0299 48.6545 40.056C48.648 40.1019 48.6415 40.1438 48.6271 40.1883C48.6128 40.2289 48.5945 40.2643 48.5724 40.3009C48.5515 40.3363 48.5319 40.3703 48.5045 40.4017C48.4745 40.4358 48.4406 40.4633 48.4041 40.4908C48.3819 40.5065 48.3689 40.5301 48.3441 40.5445L40.395 45.1696L40.395 69.1634L40.3976 69.1634Z" id="Path" fill="currentColor" stroke="none"></path>
        <path d="M37.9026 82.0083C37.9026 82.007 37.9039 82.0083 37.9026 82.0083C37.9052 82.0056 37.9052 82.0056 37.9065 82.0056C37.9509 81.9795 37.9991 81.9729 38.0461 81.9572C38.08 81.9467 38.1139 81.9271 38.1478 81.9231C38.1922 81.9166 38.2352 81.9271 38.2808 81.931C38.32 81.9349 38.3604 81.9297 38.3982 81.9402C38.4321 81.948 38.4634 81.9703 38.496 81.986C38.5391 82.0056 38.5847 82.0187 38.6238 82.0475C38.6486 82.0659 38.6617 82.0934 38.6838 82.1143C38.723 82.1536 38.766 82.1903 38.796 82.2401C38.796 82.2414 38.796 82.2427 38.7973 82.2427C38.7973 82.244 38.7986 82.2453 38.7986 82.2453L39.0947 82.7573L39.0947 71.4354L30.3004 76.5372L30.3004 78.1492L30.7634 77.8834C30.993 77.7485 31.2721 77.7734 31.4755 77.924C31.4768 77.9253 31.4781 77.9266 31.4794 77.9266C31.5316 77.9645 31.5707 78.0195 31.6112 78.0745C31.6242 78.0929 31.6412 78.1021 31.6529 78.1217L31.6542 78.123L31.6542 78.123L31.6542 78.1243L33.111 80.6516L34.3396 79.9458C34.3409 79.9458 34.3409 79.9445 34.3409 79.9445L34.3422 79.9445L34.3448 79.9432C34.38 79.9222 34.4191 79.9183 34.4556 79.9065C34.5 79.8908 34.5404 79.8686 34.5873 79.862C34.6604 79.8528 34.7321 79.8607 34.8038 79.8764C34.8143 79.879 34.8247 79.8764 34.8338 79.879C34.9017 79.8974 34.9643 79.9314 35.0229 79.9707C35.0347 79.9785 35.0503 79.9812 35.0608 79.989C35.0908 80.0126 35.1116 80.048 35.139 80.0768C35.1703 80.1108 35.2095 80.1409 35.2329 80.1828L36.7001 82.7219L37.9026 82.0083L37.9026 82.0083Z" id="Path" fill="currentColor" stroke="none"></path>
        <path d="M7.49523 41.4009C7.51871 41.3878 7.54479 41.3865 7.56826 41.376C7.6113 41.3577 7.65304 41.3406 7.69999 41.3315C7.73912 41.3236 7.77955 41.3236 7.81998 41.3236C7.86171 41.3236 7.90214 41.3236 7.94648 41.3315C7.98952 41.3406 8.02865 41.3564 8.07038 41.3734C8.09777 41.3839 8.12516 41.3852 8.15125 41.4009L15.1613 45.4616L15.1613 45.4551L12.5477 43.94C12.5229 43.9256 12.5099 43.9033 12.4877 43.8863C12.4512 43.8588 12.416 43.8313 12.3873 43.7972C12.3599 43.7658 12.339 43.7318 12.3182 43.6951C12.296 43.6584 12.2777 43.6244 12.2634 43.5838C12.249 43.5406 12.2425 43.4974 12.236 43.4515C12.2334 43.424 12.2203 43.4005 12.2203 43.3717L12.2203 43.0142L12.2203 40.3559L9.62368 38.8552C9.5989 38.8408 9.58586 38.8186 9.56368 38.8015C9.52717 38.774 9.49065 38.7465 9.46196 38.7112C9.43457 38.6798 9.41501 38.647 9.39414 38.6104C9.37197 38.5737 9.35241 38.5383 9.33806 38.4977C9.32371 38.4545 9.3172 38.4126 9.31198 38.3668C9.30807 38.3393 9.29502 38.3144 9.29502 38.2856L9.29502 35.2554L6.69836 33.7548C6.67358 33.7403 6.66054 33.7181 6.63836 33.7011C6.60185 33.6736 6.56533 33.6461 6.53664 33.6107C6.50925 33.5793 6.48969 33.5465 6.46882 33.5099C6.44665 33.4732 6.42708 33.4379 6.41274 33.3973C6.39839 33.354 6.39188 33.3121 6.38666 33.2663C6.38275 33.2388 6.3697 33.2139 6.3697 33.1851L6.3697 23.0012C6.3697 22.9881 6.37622 22.9763 6.37753 22.9645C6.38013 22.92 6.39188 22.8768 6.40492 22.8323C6.41535 22.7904 6.42578 22.7511 6.44404 22.7118C6.45056 22.7 6.45056 22.6856 6.45708 22.6738C6.47143 22.649 6.4949 22.6332 6.51186 22.611C6.53924 22.5756 6.56533 22.5416 6.59794 22.5128C6.63054 22.484 6.66575 22.4617 6.70358 22.4407C6.73749 22.4198 6.77139 22.4015 6.80922 22.3884C6.85487 22.3727 6.89921 22.3661 6.94616 22.3609C6.97224 22.3582 6.99441 22.3451 7.0218 22.3451C7.03484 22.3451 7.04658 22.3517 7.05832 22.3517C7.10266 22.3543 7.1444 22.3661 7.18874 22.3792C7.23178 22.391 7.2722 22.4015 7.31264 22.4211C7.32307 22.4263 7.33612 22.4263 7.34655 22.4329L9.29372 23.5591L9.29372 18.2805L1.79718 13.95L1.79718 39.5938L6.22102 42.1394L7.49523 41.4009L7.49523 41.4009Z" id="Path" fill="currentColor" stroke="none"></path>
        <path d="M16.1356 18.473C16.1343 18.473 16.1343 18.473 16.133 18.473C16.0339 18.5293 15.923 18.5594 15.8095 18.5594C15.6961 18.5594 15.5852 18.5293 15.4874 18.473C15.4861 18.473 15.4848 18.473 15.4835 18.473L12.8712 16.9579L11.2475 17.9047L24.5829 25.6438L32.0651 21.3015L21.6589 15.2687L16.1356 18.473L16.1356 18.473Z" id="Path" fill="currentColor" stroke="none"></path>
        <path d="M36.588 43.9479C36.4993 43.9937 36.4015 44.0264 36.2933 44.0264C36.1863 44.0264 36.0898 43.995 35.9998 43.9492C35.9959 43.9479 35.992 43.9479 35.9894 43.9465L31.4403 46.5891L33.3693 47.714L38.5782 44.6982L38.5782 42.8112L36.6167 43.94C36.6089 43.9452 36.5984 43.9426 36.588 43.9479L36.588 43.9479Z" id="Path" fill="currentColor" stroke="none"></path>
        <path d="M25.235 26.7765L25.235 48.6817L26.8952 47.7166L35.6412 42.6358L35.6412 41.1102L30.7713 43.9374C30.7622 43.9426 30.7504 43.94 30.7426 43.9452C30.6526 43.9924 30.5535 44.0251 30.4452 44.0251C30.3383 44.0251 30.2431 43.9937 30.1531 43.9479C30.1283 43.9361 30.1101 43.9191 30.0866 43.9033C30.0188 43.8575 29.9627 43.8025 29.917 43.7357C29.9066 43.72 29.8897 43.7148 29.8805 43.6991C29.874 43.6873 29.874 43.6742 29.8675 43.6624C29.8479 43.6231 29.8375 43.5812 29.8257 43.5367C29.814 43.4948 29.8023 43.4542 29.7997 43.4097C29.7984 43.3966 29.7918 43.3848 29.7918 43.3704L29.7918 39.9749C29.7918 39.9461 29.8049 39.9212 29.8088 39.8937C29.814 39.8492 29.8205 39.8059 29.8349 39.7627C29.8492 39.7221 29.8688 39.6855 29.891 39.6501C29.9118 39.6148 29.9301 39.5807 29.9575 39.5493C29.9875 39.5139 30.024 39.4877 30.0605 39.4589C30.0827 39.4419 30.0957 39.4197 30.1205 39.4052L32.7172 37.9046L32.7172 31.4802C32.7172 31.4527 32.7302 31.4291 32.7328 31.4029C32.7393 31.3571 32.7445 31.3126 32.7602 31.2681C32.7745 31.2275 32.7941 31.1921 32.815 31.1568C32.8358 31.1214 32.8554 31.0874 32.8828 31.0559C32.9141 31.0206 32.9506 30.9918 32.9884 30.963C33.0093 30.9472 33.0223 30.9263 33.0458 30.9119L35.6425 29.4112L35.6425 27.5282L33.6953 28.653C33.6862 28.6582 33.6744 28.6556 33.6653 28.6609C33.5766 28.7067 33.4788 28.7394 33.3706 28.7394C33.2636 28.7394 33.1671 28.708 33.0784 28.6622C33.0523 28.6491 33.0341 28.6321 33.0093 28.6163C32.9428 28.5705 32.888 28.5168 32.8424 28.45C32.8319 28.4343 32.8137 28.4278 32.8045 28.4121C32.798 28.4003 32.798 28.3859 32.7915 28.3741C32.7719 28.3361 32.7628 28.2942 32.7511 28.2523C32.7393 28.2091 32.7276 28.1672 32.725 28.1227C32.7237 28.1096 32.7172 28.0978 32.7172 28.0847L32.7172 22.4316L25.235 26.7765L25.235 26.7765Z" id="Path" fill="currentColor" stroke="none"></path>
        <path d="M36.7954 84.182C36.7954 84.182 36.7941 84.182 36.7941 84.182C36.7941 84.182 36.7915 84.1846 36.7915 84.1846C36.7915 84.1846 36.7875 84.1846 36.7875 84.1846C36.7875 84.1846 36.7849 84.1872 36.7849 84.1872C36.7849 84.1872 36.6036 84.2907 36.6036 84.2907C36.6036 84.2907 37.7305 86.2484 37.7305 86.2484C37.7305 86.2484 38.946 85.5452 38.946 85.5452C38.946 85.5452 38.9486 85.5426 38.9486 85.5426C38.9486 85.5426 38.9525 85.5426 38.9525 85.5426C38.9525 85.5426 38.9551 85.5399 38.9551 85.5399C38.9551 85.5399 39.1338 85.4378 39.1338 85.4378C39.1338 85.4378 37.9978 83.4709 37.9978 83.4709C37.9978 83.4709 36.7954 84.182 36.7954 84.182Z" id="Path" fill="currentColor" fill-rule="evenodd" stroke="none"></path>
        <path d="M12.5438 15.634C12.5699 15.6196 12.596 15.6183 12.6234 15.6065C12.6638 15.5895 12.7042 15.5738 12.7473 15.5646C12.789 15.5568 12.8294 15.5555 12.8725 15.5568C12.9129 15.5568 12.9533 15.5568 12.9937 15.5646C13.0381 15.5738 13.0772 15.5895 13.1203 15.6065C13.1463 15.617 13.1737 15.6183 13.1998 15.634L15.8134 17.1491L21.3354 13.9448C21.3615 13.9291 21.3915 13.9278 21.4176 13.9173C21.4554 13.9016 21.4932 13.8859 21.5337 13.878C21.578 13.8688 21.621 13.8675 21.668 13.8688C21.7058 13.8688 21.7436 13.8688 21.7828 13.8767C21.8258 13.8845 21.8662 13.9016 21.908 13.9186C21.9354 13.9291 21.9627 13.9304 21.9888 13.9461L33.3732 20.5472L46.7165 12.8239L24.5829 0L2.4519 12.8212L9.94453 17.1504L12.5438 15.634L12.5438 15.634Z" id="Path" fill="currentColor" stroke="none"></path>
        <path d="M29.964 79.8476C29.964 79.8476 29.9574 79.8528 29.9574 79.8528C29.9574 79.8528 29.6366 80.0283 29.6366 80.0283C29.6366 80.0283 29.6353 80.0283 29.6353 80.0283C29.6353 80.0283 29.4645 80.1291 29.4645 80.1291C29.4645 80.1291 30.6004 82.1078 30.6004 82.1078C30.6004 82.1078 31.8081 81.4098 31.8081 81.4098C31.8081 81.4098 31.812 81.4059 31.812 81.4059C31.812 81.4059 31.9816 81.3051 31.9816 81.3051C31.9816 81.3051 30.8495 79.3408 30.8495 79.3408C30.8495 79.3408 29.9718 79.845 29.9718 79.845C29.9718 79.845 29.964 79.8476 29.964 79.8476Z" id="Path" fill="currentColor" fill-rule="evenodd" stroke="none"></path>
        <path d="M19.859 46.3128C19.8603 46.3128 19.8603 46.3141 19.8616 46.3141L21.4815 47.2556C21.4815 47.2556 21.4828 47.2556 21.4828 47.2556L22.2809 47.7139C22.2822 47.7139 22.2822 47.7152 22.2835 47.7152C22.2835 47.7152 22.2849 47.7152 22.2849 47.7152L23.9308 48.6764L23.9308 26.7765L10.5979 19.04L10.5979 24.6944C10.5979 24.7075 10.5914 24.7192 10.5901 24.731C10.5875 24.7756 10.5757 24.8188 10.5627 24.8633C10.5523 24.9052 10.5418 24.9445 10.5236 24.9838C10.5171 24.9955 10.5171 25.01 10.5105 25.0217C10.5001 25.0388 10.4832 25.0453 10.4727 25.0597C10.4271 25.1265 10.3723 25.1802 10.3058 25.226C10.281 25.2417 10.2627 25.2588 10.2367 25.2719C10.1493 25.3177 10.0515 25.3491 9.94452 25.3491C9.83627 25.3491 9.73846 25.3164 9.64847 25.2692C9.63803 25.2653 9.6276 25.2666 9.61977 25.2614L7.6726 24.1352L7.6726 32.8093L10.2693 34.31C10.294 34.3244 10.3071 34.3466 10.3293 34.3637C10.3658 34.3912 10.4023 34.4187 10.431 34.454C10.4584 34.4854 10.4779 34.5195 10.4988 34.5548C10.521 34.5915 10.5405 34.6269 10.5549 34.6675C10.5692 34.7107 10.5757 34.7526 10.581 34.7984C10.5849 34.8259 10.5979 34.8508 10.5979 34.8783L10.5979 37.9084L13.1946 39.4091C13.2194 39.4235 13.2324 39.4458 13.2546 39.4628C13.2911 39.4903 13.3276 39.5178 13.3563 39.5532C13.3837 39.5846 13.4033 39.6186 13.4241 39.654C13.4463 39.6907 13.4659 39.726 13.4802 39.7666C13.4946 39.8098 13.5011 39.8517 13.5063 39.8976C13.5102 39.9251 13.5232 39.9499 13.5232 39.9774L13.5232 42.637L19.859 46.3128L19.859 46.3128Z" id="Path" fill="currentColor" stroke="none"></path>
        <path d="M33.2024 82.1038C33.2024 82.1038 33.2011 82.1051 33.2011 82.1051C33.2011 82.1051 33.0315 82.2047 33.0315 82.2047C33.0315 82.2047 34.1675 84.1846 34.1675 84.1846C34.1675 84.1846 35.383 83.4814 35.383 83.4814C35.383 83.4814 35.3843 83.4801 35.3843 83.4801C35.3843 83.4801 35.3856 83.4788 35.3856 83.4788C35.3856 83.4788 35.3882 83.4775 35.3882 83.4775C35.3882 83.4775 35.5695 83.374 35.5695 83.374C35.5695 83.374 34.4283 81.3993 34.4283 81.3993C34.4283 81.3993 33.2024 82.1038 33.2024 82.1038Z" id="Path" fill="currentColor" fill-rule="evenodd" stroke="none"></path>
        <path d="M28.8542 77.3687C28.8542 77.3687 28.995 77.6136 28.995 77.6136C28.995 77.6136 28.995 77.2875 28.995 77.2875C28.995 77.2875 28.8542 77.3687 28.8542 77.3687Z" id="Path" fill="currentColor" fill-rule="evenodd" stroke="none"></path>
        <path d="M33.6927 49.0379C33.5936 49.0942 33.4827 49.1243 33.3692 49.1243C33.2558 49.1243 33.1436 49.0942 33.0445 49.0366C33.0445 49.0366 33.0432 49.0366 33.0419 49.0366L30.4452 47.5228L27.8486 49.0366C27.8459 49.0379 27.8433 49.0366 27.8394 49.0379C27.7429 49.0929 27.6334 49.1243 27.5212 49.1243C27.4143 49.1243 27.3086 49.0942 27.2147 49.0431L24.9089 50.3827C24.9076 50.3827 24.9076 50.3827 24.9063 50.3827C24.8958 50.388 24.8841 50.388 24.875 50.3932C24.7863 50.439 24.6898 50.4705 24.5828 50.4705C24.4759 50.4705 24.3807 50.439 24.2907 50.3932C24.2803 50.388 24.2685 50.388 24.2594 50.3827C24.2581 50.3827 24.2568 50.3827 24.2555 50.3827L21.9653 49.0457C21.8701 49.0968 21.7658 49.1256 21.6588 49.1256C21.5454 49.1256 21.4358 49.0942 21.338 49.0379C21.3341 49.0366 21.3302 49.0379 21.3276 49.0353L20.5281 48.5625C20.5046 48.5494 20.4916 48.5272 20.4707 48.5101C20.4342 48.4826 20.4003 48.4551 20.3703 48.4198C20.3429 48.3884 20.322 48.353 20.3012 48.3163C20.2803 48.281 20.2633 48.2456 20.249 48.2063C20.2333 48.1618 20.2268 48.1186 20.2216 48.0728C20.2203 48.0584 20.2138 48.0466 20.2138 48.0322L20.1851 48.0152L20.1851 63.3153L21.8453 62.3554C21.9236 62.3109 22.0071 62.2821 22.0905 62.2729C22.0957 62.2729 22.1023 62.2755 22.1075 62.2742C22.2822 62.2572 22.4557 62.3135 22.59 62.4287C22.6448 62.4772 22.6983 62.5283 22.7361 62.5963C22.7374 62.5977 22.7374 62.599 22.7374 62.6003L26.2992 68.7942C26.3005 68.7942 26.3005 68.7955 26.3018 68.7968C26.4818 69.1098 26.3748 69.5105 26.0618 69.6912L24.8424 70.3957L26.3005 72.9361C26.4805 73.2491 26.3735 73.6498 26.0605 73.8305L24.8411 74.5363L25.9718 76.5058L27.1886 75.7921C27.1886 75.7908 27.1899 75.7921 27.1899 75.7908C27.1912 75.7895 27.1912 75.7895 27.1925 75.7895C27.2356 75.7633 27.2825 75.758 27.3282 75.7436C27.3634 75.7318 27.3986 75.7135 27.4351 75.7083C27.486 75.7017 27.5356 75.7122 27.5864 75.7188C27.6177 75.7214 27.6516 75.7161 27.6829 75.7253C27.7312 75.7397 27.7742 75.7672 27.8199 75.7921C27.8473 75.8078 27.8812 75.8157 27.9073 75.8353C27.9359 75.8576 27.9568 75.8929 27.9829 75.9204C28.0155 75.9532 28.0533 75.9846 28.0781 76.0265C28.0794 76.0278 28.0781 76.0291 28.0794 76.0304C28.0794 76.0304 28.0807 76.0304 28.0807 76.0317L28.1981 76.2373L29.3119 75.593C29.3132 75.5917 29.3132 75.5904 29.3145 75.5904L39.0869 69.9216L39.0869 45.9121L33.6888 49.0366C33.694 49.0379 33.6927 49.0366 33.6927 49.0379L33.6927 49.0379Z" id="Path" fill="currentColor" stroke="none"></path>
        <path d="M28.2438 79.3316C28.2438 79.3316 28.2464 79.329 28.2464 79.329C28.2464 79.329 28.416 79.2282 28.416 79.2282C28.416 79.2282 27.3974 77.4565 27.3974 77.4565C27.3974 77.4565 27.3961 77.4525 27.3961 77.4525C27.3961 77.4525 27.2826 77.2535 27.2826 77.2535C27.2826 77.2535 26.0671 77.9672 26.0671 77.9672C26.0671 77.9672 26.0645 77.9685 26.0645 77.9685C26.0645 77.9685 25.8884 78.0693 25.8884 78.0693C25.8884 78.0693 27.0296 80.0427 27.0296 80.0427C27.0296 80.0427 28.2438 79.3316 28.2438 79.3316Z" id="Path" fill="currentColor" fill-rule="evenodd" stroke="none"></path>
        <path d="M10.0997 86.7355L13.8402 84.5631L13.7359 84.3784C13.7359 84.3784 13.7346 84.3784 13.7346 84.3771C13.7346 84.3758 13.7346 84.3758 13.7332 84.3745L13.7306 84.3693C13.7137 84.3405 13.7124 84.309 13.702 84.2802C13.6811 84.2292 13.6576 84.1794 13.6511 84.1257C13.6472 84.0904 13.6576 84.0537 13.6589 84.0183C13.6615 83.9699 13.6576 83.9227 13.6693 83.8769C13.6798 83.8402 13.702 83.8088 13.7189 83.7761C13.7385 83.7342 13.7515 83.6896 13.7802 83.6517C13.805 83.6202 13.8428 83.5967 13.8741 83.5692C13.9054 83.5404 13.9315 83.505 13.9693 83.4827L15.1926 82.7664L13.7332 80.2221C13.7267 80.209 13.7267 80.1959 13.7202 80.1841C13.7006 80.1462 13.6915 80.1056 13.6811 80.0637C13.668 80.0204 13.6563 79.9772 13.6537 79.9327C13.6524 79.9183 13.6459 79.9078 13.6459 79.8947L13.6459 75.7698C13.6459 75.7423 13.6589 75.7188 13.6615 75.6913C13.668 75.6467 13.6746 75.6035 13.6889 75.5603C13.7033 75.5197 13.7215 75.4831 13.7437 75.4464C13.7646 75.4123 13.7828 75.3783 13.8102 75.3469C13.8402 75.3115 13.8767 75.2827 13.9132 75.2552C13.9341 75.2395 13.9471 75.2185 13.9706 75.2041L15.194 74.4878L13.7346 71.9435C13.5546 71.6305 13.6615 71.2298 13.9745 71.0491L16.9755 69.314L15.5187 66.7736C15.3387 66.4607 15.4457 66.06 15.7587 65.8792C15.76 65.8792 15.76 65.8792 15.7613 65.8792L18.8861 64.063L18.8861 48.0151L10.105 53.1156L10.105 86.7355L10.0997 86.7355Z" id="Path" fill="currentColor" stroke="none"></path>
        <path d="M23.5369 75.2919C23.5369 75.2919 22.3187 76.0055 22.3187 76.0055C22.3187 76.0055 23.4508 77.9802 23.4508 77.9802C23.4508 77.9802 24.6676 77.2666 24.6676 77.2666C24.6676 77.2666 24.6689 77.264 24.6689 77.264C24.6689 77.264 24.8476 77.1618 24.8476 77.1618C24.8476 77.1618 23.7155 75.1884 23.7155 75.1884C23.7155 75.1884 23.5382 75.2906 23.5382 75.2906C23.5382 75.2906 23.5369 75.2919 23.5369 75.2919Z" id="Path" fill="currentColor" fill-rule="evenodd" stroke="none"></path>
        <path d="M23.7156 71.0491C23.7156 71.0491 23.5382 71.1512 23.5382 71.1512C23.5382 71.1512 23.5356 71.1512 23.5356 71.1512C23.5356 71.1512 22.3201 71.8544 22.3201 71.8544C22.3201 71.8544 23.4521 73.8292 23.4521 73.8292C23.4521 73.8292 23.6295 73.727 23.6295 73.727C23.6295 73.727 24.8476 73.0212 24.8476 73.0212C24.8476 73.0212 23.7156 71.0491 23.7156 71.0491Z" id="Path" fill="currentColor" fill-rule="evenodd" stroke="none"></path>
        <path d="M21.934 63.8168C21.934 63.8168 20.5372 64.6221 20.5372 64.6221C20.5372 64.6221 23.4508 69.6912 23.4508 69.6912C23.4508 69.6912 23.6295 69.5877 23.6295 69.5877C23.6295 69.5877 24.8476 68.8832 24.8476 68.8832C24.8476 68.8832 21.934 63.8168 21.934 63.8168Z" id="Path" fill="currentColor" fill-rule="evenodd" stroke="none"></path>
    </g>
</svg>